<svg width="25" height="24" viewBox="0 0 25 24" fill="none" xmlns="http://www.w3.org/2000/svg">
<path d="M11.209 4H4.20898C3.67855 4 3.16984 4.21071 2.79477 4.58579C2.4197 4.96086 2.20898 5.46957 2.20898 6V20C2.20898 20.5304 2.4197 21.0391 2.79477 21.4142C3.16984 21.7893 3.67855 22 4.20898 22H18.209C18.7394 22 19.2481 21.7893 19.6232 21.4142C19.9983 21.0391 20.209 20.5304 20.209 20V13" stroke="#0967D2" stroke-width="2" stroke-linecap="round" stroke-linejoin="round"/>
<path d="M18.709 2.50023C19.1068 2.1024 19.6464 1.87891 20.209 1.87891C20.7716 1.87891 21.3112 2.1024 21.709 2.50023C22.1068 2.89805 22.3303 3.43762 22.3303 4.00023C22.3303 4.56284 22.1068 5.1024 21.709 5.50023L12.209 15.0002L8.20898 16.0002L9.20898 12.0002L18.709 2.50023Z" stroke="#0967D2" stroke-width="2" stroke-linecap="round" stroke-linejoin="round"/>
</svg>
