<svg width="25" height="24" viewBox="0 0 25 24" fill="none" xmlns="http://www.w3.org/2000/svg">
<g clip-path="url(#clip0)">
<path d="M9.20898 17H6.20898C5.55238 17 4.90219 16.8707 4.29557 16.6194C3.68894 16.3681 3.13774 15.9998 2.67345 15.5355C1.73577 14.5979 1.20898 13.3261 1.20898 12C1.20898 10.6739 1.73577 9.40215 2.67345 8.46447C3.61113 7.52678 4.8829 7 6.20898 7H9.20898M15.209 7H18.209C18.8656 7 19.5158 7.12933 20.1224 7.3806C20.729 7.63188 21.2802 8.00017 21.7445 8.46447C22.2088 8.92876 22.5771 9.47996 22.8284 10.0866C23.0797 10.6932 23.209 11.3434 23.209 12C23.209 12.6566 23.0797 13.3068 22.8284 13.9134C22.5771 14.52 22.2088 15.0712 21.7445 15.5355C21.2802 15.9998 20.729 16.3681 20.1224 16.6194C19.5158 16.8707 18.8656 17 18.209 17H15.209V7Z" stroke="#2F8132" stroke-width="2" stroke-linecap="round" stroke-linejoin="round"/>
<path d="M8.20898 12H16.209" stroke="#2F8132" stroke-width="2" stroke-linecap="round" stroke-linejoin="round"/>
</g>
<defs>
<clipPath id="clip0">
<rect width="24" height="24" fill="white" transform="translate(0.208984)"/>
</clipPath>
</defs>
</svg>
