<svg width="25" height="24" viewBox="0 0 25 24" fill="none" xmlns="http://www.w3.org/2000/svg">
<path d="M18.209 8C19.8658 8 21.209 6.65685 21.209 5C21.209 3.34315 19.8658 2 18.209 2C16.5521 2 15.209 3.34315 15.209 5C15.209 6.65685 16.5521 8 18.209 8Z" stroke="#2F8132" stroke-width="2" stroke-linecap="round" stroke-linejoin="round"/>
<path d="M6.20898 15C7.86584 15 9.20898 13.6569 9.20898 12C9.20898 10.3431 7.86584 9 6.20898 9C4.55213 9 3.20898 10.3431 3.20898 12C3.20898 13.6569 4.55213 15 6.20898 15Z" stroke="#2F8132" stroke-width="2" stroke-linecap="round" stroke-linejoin="round"/>
<path d="M18.209 22C19.8658 22 21.209 20.6569 21.209 19C21.209 17.3431 19.8658 16 18.209 16C16.5521 16 15.209 17.3431 15.209 19C15.209 20.6569 16.5521 22 18.209 22Z" stroke="#2F8132" stroke-width="2" stroke-linecap="round" stroke-linejoin="round"/>
<path d="M8.79883 13.5098L15.6288 17.4898" stroke="#2F8132" stroke-width="2" stroke-linecap="round" stroke-linejoin="round"/>
<path d="M15.6188 6.50977L8.79883 10.4898" stroke="#2F8132" stroke-width="2" stroke-linecap="round" stroke-linejoin="round"/>
</svg>
